<svg xmlns="http://www.w3.org/2000/svg" viewBox="0 0 64 64">
  <path d="M12,40 C7.6,40 4,36.4 4,32 C4,27.6 7.6,24 12,24 C12.7,24 13.4,24.1 14,24.3 C15.3,18.9 20.1,15 26,15 C32.6,15 38,20.4 38,27 C38,27.7 37.9,28.4 37.8,29 C38.5,28.9 39.2,28.8 40,28.8 C45.5,28.8 50,33.3 50,38.8 C50,44.3 45.5,48.8 40,48.8 C36.7,48.8 33.8,47.2 32,44.8" fill="#6B6B6B" stroke="#555555" stroke-width="2"/>
  <path d="M30,30 L25,40 L32,40 L28,52" stroke="#FFD700" stroke-width="3" fill="none" stroke-linecap="round" stroke-linejoin="round"/>
  <line x1="20" y1="40" x2="17" y2="48" stroke="#4682B4" stroke-width="2"/>
  <line x1="40" y1="40" x2="37" y2="48" stroke="#4682B4" stroke-width="2"/>
</svg>